# xmcd CD database file
#
# Track frame offsets:
#	150
#	12658
#	29780
#	45891
#	63943
#	76890
#	92329
#	107296
#	126493
#	148140
#
# Disc length: 2199 seconds
#
# Revision: 0
# Processed by: cddbd v1.5.2PL0 Copyright (c) Steve Scherf et al.
# Submitted via: CDex 1.70beta2
#
DISCID=7d08950a
DTITLE=Nashville Tribute Band - The Greatest Country Songs of Love - Disc 1 - Kiss Me
DYEAR=2008
DGENRE=Country
TTITLE0=It Must Be Love
TTITLE1=Somebody Like You
TTITLE2=Breathe
TTITLE3=I Breathe In, I Breathe Out
TTITLE4=I Love You
TTITLE5=Good Stuff
TTITLE6=Best Day
TTITLE7=I'm Already There
TTITLE8=Cowboy Take Me Away
TTITLE9=You Shouldn't Kiss Me Like This
EXTD=YEAR: 2008
EXTT0=
EXTT1=
EXTT2=
EXTT3=
EXTT4=
EXTT5=
EXTT6=
EXTT7=
EXTT8=
EXTT9=
PLAYORDER=
